<?xml version="1.0" encoding="UTF-8"?>
<svg width="400px" height="75px" viewBox="0 0 400 75" version="1.1" xmlns="http://www.w3.org/2000/svg" xmlns:xlink="http://www.w3.org/1999/xlink">
    <!-- Generator: Sketch 51.1 (57501) - http://www.bohemiancoding.com/sketch -->
    <title>BUY NOW! (btn)</title>
    <desc>Created with Sketch.</desc>
    <defs></defs>
    <g id="BUY-NOW!-(btn)" stroke="none" stroke-width="1" fill="none" fill-rule="evenodd">
        <path d="M339.992187,74.9994997 L59.74975,75 C57.96375,75 56.31325,74.0463897 55.41975,72.498399 L36.66975,40.001601 C35.77675,38.4536103 35.77675,36.5458894 36.66975,34.998399 L55.42025,2.50160102 C55.86675,1.72760567 56.50275,1.10220541 57.25025,0.669928754 C57.99775,0.238152418 58.85725,0 59.75025,0 L339.992187,0 C341.778188,0 343.429187,0.953610311 344.322187,2.50160102 L363.072187,34.998399 C363.965688,36.5458894 363.965187,38.4536103 363.072187,40.001601 L344.322187,72.4978987 C343.876188,73.271894 343.239687,73.8977946 342.492187,74.3295709 C341.744688,74.7613473 340.885187,74.9994997 339.992187,74.9994997 Z" id="Fill-1" fill="#81A14F"></path>
        <text id="BUY-NOW!" font-family="WorkSans-Bold, Work Sans" font-size="24" font-weight="bold" letter-spacing="3" fill="#FFFFFF">
            <tspan x="128.036" y="47">BUY NOW</tspan>
            <tspan x="263.54" y="47" letter-spacing="0.200000003">!</tspan>
        </text>
    </g>
</svg>