<?xml version="1.0" encoding="UTF-8"?>
<svg width="584px" height="407px" viewBox="0 0 584 407" version="1.1" xmlns="http://www.w3.org/2000/svg" xmlns:xlink="http://www.w3.org/1999/xlink">
    <!-- Generator: Sketch 51.1 (57501) - http://www.bohemiancoding.com/sketch -->
    <title>Fill 1</title>
    <desc>Created with Sketch.</desc>
    <defs></defs>
    <g id="Page-1" stroke="none" stroke-width="1" fill="none" fill-rule="evenodd">
        <g id="SentryTurret-LANDINGPAGE" transform="translate(0.000000, -3676.000000)" fill="#162B19" stroke="#B8E986" stroke-width="10">
            <g id="SHOT-SHOW-ad" transform="translate(0.000000, 3676.000000)">
                <path d="M514.681595,259.03394 L58.5232812,522.399796 C49.584726,527.559544 38.5689824,527.559544 29.6333162,522.399796 L-158.012784,414.062427 C-166.951339,408.899791 -172.457767,399.363213 -172.457767,389.040829 L-172.457767,172.366092 C-172.457767,167.206344 -171.082604,162.240159 -168.5894,157.921109 C-166.093307,153.602059 -162.482062,149.927256 -158.012784,147.347382 L298.14553,-116.018474 C307.081196,-121.178222 318.09694,-121.178222 327.035495,-116.018474 L514.681595,-7.6811059 C523.62015,-2.51846916 529.126578,7.01810827 529.126578,17.3376038 L529.126578,234.01523 C529.126578,239.174978 527.748526,244.141163 525.255322,248.460212 C522.762118,252.779262 519.150873,256.454066 514.681595,259.03394 Z" id="Fill-1" transform="translate(178.334406, 203.190661) rotate(-330.000000) translate(-178.334406, -203.190661) "></path>
            </g>
        </g>
    </g>
</svg>