<?xml version="1.0" encoding="UTF-8"?>
<svg width="84px" height="93px" viewBox="0 0 84 93" version="1.1" xmlns="http://www.w3.org/2000/svg" xmlns:xlink="http://www.w3.org/1999/xlink">
    <!-- Generator: Sketch 51.1 (57501) - http://www.bohemiancoding.com/sketch -->
    <title>Group 3</title>
    <desc>Created with Sketch.</desc>
    <defs></defs>
    <g id="Page-1" stroke="none" stroke-width="1" fill="none" fill-rule="evenodd">
        <g id="SentryTurret-LANDINGPAGE" transform="translate(-1038.000000, -4135.000000)" fill="#D8D8D8">
            <g id="Group-3" transform="translate(1038.000000, 4135.000000)">
                <path d="M66.8596662,64.0142682 L57.0308307,58.7711428 C58.1828513,56.7116917 58.8988371,54.3895969 59.067141,51.9234543 L70.2879552,51.9234543 C70.1085421,56.2882127 68.889311,60.3962843 66.8596662,64.0142682 Z M43.5465238,34.1979863 L43.5465238,23.2433092 C57.894013,23.9998312 69.4325493,35.2176935 70.2640704,49.1919603 L59.0277035,49.1919603 C58.2411744,41.2460422 51.7117615,34.9155179 43.5465238,34.1979863 Z M36.5427494,72.6831333 L47.7496771,72.6831333 L47.7496771,50.284233 L36.5427494,50.284233 L36.5427494,72.6831333 Z M24.9714411,49.1919603 L13.7350741,49.1919603 C14.5727053,35.1234667 26.2623263,23.850368 40.7453473,23.2313955 L40.7453473,34.176325 C32.4440223,34.7665963 25.7679683,41.1512739 24.9714411,49.1919603 Z M16.85675,63.4813995 C14.9992973,59.993925 13.882826,56.0764731 13.7123003,51.9234543 L24.932559,51.9234543 C25.0936419,54.2807487 25.7579701,56.504826 26.8233392,58.4955024 L16.85675,63.4813995 Z M81.1982681,21.2190577 L44.8018597,0.732311487 C43.9353446,0.244389985 42.9671807,0.0007 42.0001277,0.0007 C41.0325193,0.0007 40.0654663,0.244389985 39.1983958,0.732311487 L2.80198738,21.2190577 C1.06840187,22.1949007 -0.0003,23.9982066 -0.0003,25.9498926 L-0.0003,66.9233851 C-0.0003,68.8756127 1.06840187,70.6789186 2.80198738,71.6547616 L39.1983958,92.1409663 C40.0654663,92.6294293 41.0325193,92.8736608 42.0001277,92.8736608 C42.9671807,92.8736608 43.9353446,92.6294293 44.8018597,92.1409663 L81.1982681,71.6547616 C82.932409,70.6789186 84,68.8756127 84,66.9233851 L84,25.9498926 C84,23.9982066 82.932409,22.1949007 81.1982681,21.2190577 Z" id="Fill-1"></path>
            </g>
        </g>
    </g>
</svg>