<?xml version="1.0" encoding="UTF-8"?>
<svg width="60px" height="68px" viewBox="0 0 60 68" version="1.1" xmlns="http://www.w3.org/2000/svg" xmlns:xlink="http://www.w3.org/1999/xlink">
    <!-- Generator: Sketch 51.1 (57501) - http://www.bohemiancoding.com/sketch -->
    <title>Group 4 Copy 2</title>
    <desc>Created with Sketch.</desc>
    <defs></defs>
    <g id="Page-1" stroke="none" stroke-width="1" fill="none" fill-rule="evenodd">
        <g id="SentryTurret-LANDINGPAGE" transform="translate(-250.000000, -3284.000000)">
            <g id="Group-4-Copy-2" transform="translate(250.000000, 3284.000000)">
                <path d="M57.249482,15.344842 L31.5876295,0.529214223 C30.9768306,0.176404741 30.2945215,-0.000197541703 29.6122125,-0.000197541703 C28.9302985,-0.000197541703 28.2479895,0.176404741 27.6367954,0.529214223 L1.97533802,15.344842 C0.752949956,16.0504609 -7.90166813e-05,17.3550263 -7.90166813e-05,18.7662643 L-7.90166813e-05,48.3975198 C-7.90166813e-05,49.8091528 0.752949956,51.1137182 1.97533802,51.8193371 L27.6367954,66.6349649 C28.2479895,66.9877744 28.9302985,67.1639816 29.6122125,67.1639816 C30.2945215,67.1639816 30.9768306,66.9877744 31.5876295,66.6349649 L57.249482,51.8193371 C58.471475,51.1137182 59.224899,49.8091528 59.224899,48.3975198 L59.224899,18.7662643 C59.224899,17.3550263 58.471475,16.0504609 57.249482,15.344842" id="Path" fill="#C1B059" fill-rule="nonzero"></path>
                <text id="2" font-family="Norwester-Regular, Norwester" font-size="36" font-style="condensed" font-weight="normal" letter-spacing="0.150000006" fill="#FFFFFF">
                    <tspan x="20.805597" y="47.1641791">2</tspan>
                </text>
            </g>
        </g>
    </g>
</svg>