<?xml version="1.0" encoding="UTF-8"?>
<svg width="89px" height="100px" viewBox="0 0 89 100" version="1.1" xmlns="http://www.w3.org/2000/svg" xmlns:xlink="http://www.w3.org/1999/xlink">
    <!-- Generator: Sketch 51.1 (57501) - http://www.bohemiancoding.com/sketch -->
    <title>ICON Lightweight</title>
    <desc>Created with Sketch.</desc>
    <defs>
        <polygon id="path-1" points="0 0 88.1788235 0 88.1788235 99.9997059 0 99.9997059"></polygon>
        <polygon id="path-3" points="0 100 88.1788235 100 88.1788235 0 0 0"></polygon>
    </defs>
    <g id="Page-1" stroke="none" stroke-width="1" fill="none" fill-rule="evenodd">
        <g id="SALES-Onepager" transform="translate(-347.000000, -1109.000000)">
            <g id="ICON-Lightweight" transform="translate(347.000000, 1109.000000)">
                <g id="Group-3">
                    <mask id="mask-2" fill="white">
                        <use xlink:href="#path-1"></use>
                    </mask>
                    <g id="Clip-2"></g>
                    <path d="M69.4545882,72.4261765 C68.5357647,73.0585294 67.2851765,72.8144118 66.6528235,71.8808824 L46.0457647,42.1397059 L46.0457647,75.9161765 C46.0457647,77.0214706 45.1398824,77.9279412 44.0210588,77.9279412 C42.8998824,77.9279412 41.9957647,77.0214706 41.9957647,75.9161765 L41.9957647,42.1397059 L21.4163529,71.8808824 C20.784,72.8144118 19.5057647,73.0585294 18.6016471,72.4261765 C17.6822353,71.7802941 17.4516471,70.5302941 18.084,69.6114706 L40.1722353,37.6732353 L37.084,37.6732353 C35.9781176,37.6732353 35.0587059,36.7820588 35.0587059,35.6614706 L35.0587059,35.6038235 L35.0587059,24.6191176 C35.0587059,23.4985294 35.9781176,22.5938235 37.084,22.5938235 L37.1410588,22.5938235 L50.9575294,22.5938235 C52.0622353,22.5938235 52.9810588,23.4985294 52.9810588,24.6191176 L52.9810588,24.6614706 L52.9810588,35.6614706 C52.9810588,36.7820588 52.0622353,37.6732353 50.9575294,37.6732353 L50.8987059,37.6732353 L47.8692941,37.6732353 L69.9851765,69.6114706 C70.5881176,70.5302941 70.3592941,71.7802941 69.4545882,72.4261765 M85.2381176,22.8467647 L47.0304706,0.787941176 C46.1210588,0.262647059 45.1051765,-0.000294117647 44.0892941,-0.000294117647 C43.074,-0.000294117647 42.0581176,0.262647059 41.1481176,0.787941176 L2.94105882,22.8467647 C1.12105882,23.8973529 -0.000117647059,25.8397059 -0.000117647059,27.9408824 L-0.000117647059,72.0585294 C-0.000117647059,74.1602941 1.12105882,76.1026471 2.94105882,77.1532353 L41.1481176,99.2120588 C42.0581176,99.7373529 43.074,99.9997059 44.0892941,99.9997059 C45.1051765,99.9997059 46.1210588,99.7373529 47.0304706,99.2120588 L85.2381176,77.1532353 C87.0575294,76.1026471 88.1792941,74.1602941 88.1792941,72.0585294 L88.1792941,27.9408824 C88.1792941,25.8397059 87.0575294,23.8973529 85.2381176,22.8467647" id="Fill-1" fill="#C1B059" mask="url(#mask-2)"></path>
                </g>
                <mask id="mask-4" fill="white">
                    <use xlink:href="#path-3"></use>
                </mask>
                <g id="Clip-5"></g>
                <polygon id="Fill-4" fill="#C1B059" mask="url(#mask-4)" points="39.1088235 33.6229412 48.9323529 33.6229412 48.9323529 26.6435294 39.1088235 26.6435294"></polygon>
            </g>
        </g>
    </g>
</svg>