<?xml version="1.0" encoding="UTF-8"?>
<svg width="89px" height="100px" viewBox="0 0 89 100" version="1.1" xmlns="http://www.w3.org/2000/svg" xmlns:xlink="http://www.w3.org/1999/xlink">
    <!-- Generator: Sketch 51.1 (57501) - http://www.bohemiancoding.com/sketch -->
    <title>ICON BuyOnline</title>
    <desc>Created with Sketch.</desc>
    <defs>
        <polygon id="path-1" points="5.88235294e-05 0 88.1788235 0 88.1788235 100 5.88235294e-05 100"></polygon>
    </defs>
    <g id="Page-1" stroke="none" stroke-width="1" fill="none" fill-rule="evenodd">
        <g id="SALES-Onepager" transform="translate(-993.000000, -1109.000000)">
            <g id="ICON-BuyOnline" transform="translate(993.000000, 1109.000000)">
                <g id="Group-3">
                    <mask id="mask-2" fill="white">
                        <use xlink:href="#path-1"></use>
                    </mask>
                    <g id="Clip-2"></g>
                    <path d="M44.0894706,100 C43.0735882,100 42.0582941,99.7370588 41.1482941,99.2117647 L2.94123529,77.1529412 C1.12123529,76.1023529 5.88235294e-05,74.1605882 5.88235294e-05,72.0588235 L5.88235294e-05,27.9411765 C5.88235294e-05,25.8394118 1.12123529,23.8976471 2.94123529,22.8470588 L41.1482941,0.788235294 C42.0582941,0.262941176 43.0735882,0 44.0894706,0 C45.1053529,0 46.1206471,0.262941176 47.0306471,0.788235294 L85.2377059,22.8470588 C87.0577059,23.8976471 88.1788824,25.8394118 88.1788824,27.9411765 L88.1788824,72.0588235 C88.1788824,74.1605882 87.0577059,76.1023529 85.2377059,77.1529412 L47.0306471,99.2117647 C46.1206471,99.7370588 45.1053529,100 44.0894706,100" id="Fill-1" fill="#C1B059" mask="url(#mask-2)"></path>
                </g>
                <path d="M65.0120588,61.1601176 L39.0320588,61.1601176 L41.1197059,75.9501176 L62.9138235,75.9501176 L65.0120588,61.1601176 Z M64.8767647,40.0024706 L52.0173529,54.7407059 L39.1573529,40.0024706 C38.6355882,39.3871765 37.6961765,39.3242353 37.0914706,39.8565882 C36.4755882,40.3883529 36.4232353,41.3189412 36.945,41.9236471 L50.9108824,57.9248235 C50.9532353,57.9771765 50.9944118,58.0389412 51.0561765,58.1018824 C51.6626471,58.6236471 52.6020588,58.5607059 53.1232353,57.9448235 L67.0885294,41.9236471 C67.6314706,41.3189412 67.5697059,40.3883529 66.9632353,39.8565882 C66.3585294,39.3242353 65.4191176,39.3871765 64.8767647,40.0024706 Z M59.1973529,64.7407059 L59.1973529,73.1112941 C59.1973529,73.6112941 59.595,73.9877647 60.075,73.9877647 C60.5655882,73.9877647 60.9514706,73.6112941 60.9514706,73.1112941 L60.9514706,64.7407059 C60.9514706,64.2595294 60.5655882,63.8630588 60.075,63.8630588 C59.595,63.8630588 59.1973529,64.2595294 59.1973529,64.7407059 Z M53.8120588,64.7407059 L53.8120588,73.1112941 C53.8120588,73.6112941 54.2097059,73.9877647 54.7097059,73.9877647 C55.1897059,73.9877647 55.5873529,73.6112941 55.5873529,73.1112941 L55.5873529,64.7407059 C55.5873529,64.2595294 55.1897059,63.8630588 54.7097059,63.8630588 C54.2097059,63.8630588 53.8120588,64.2595294 53.8120588,64.7407059 Z M48.4579412,64.7407059 L48.4579412,73.1112941 C48.4579412,73.6112941 48.8655882,73.9877647 49.345,73.9877647 C49.8255882,73.9877647 50.2214706,73.6112941 50.2214706,73.1112941 L50.2214706,64.7407059 C50.2214706,64.2595294 49.8255882,63.8630588 49.345,63.8630588 C48.8655882,63.8630588 48.4579412,64.2595294 48.4579412,64.7407059 Z M43.0820588,64.7407059 L43.0820588,73.1112941 C43.0820588,73.6112941 43.4785294,73.9877647 43.9691176,73.9877647 C44.4502941,73.9877647 44.8573529,73.6112941 44.8573529,73.1112941 L44.8573529,64.7407059 C44.8573529,64.2595294 44.4502941,63.8630588 43.9691176,63.8630588 C43.4785294,63.8630588 43.0820588,64.2595294 43.0820588,64.7407059 Z M34.3773529,53.5095294 L34.4191176,53.5095294 L44.5014706,53.5095294 C45.3161765,53.5095294 45.9732353,54.1665882 45.9732353,54.9707059 C45.9732353,55.8054118 45.3161765,56.4530588 44.5014706,56.4530588 L35.8385294,56.4530588 L35.8385294,59.386 L68.195,59.386 L68.195,56.4530588 L59.5326471,56.4530588 C58.7279412,56.4530588 58.0608824,55.8054118 58.0608824,54.9707059 C58.0608824,54.1665882 58.7279412,53.5095294 59.5326471,53.5095294 L69.6773529,53.5095294 C70.4914706,53.5095294 71.1385294,54.1665882 71.1385294,54.9707059 L71.1385294,55.0118824 L71.1385294,60.8577647 C71.1385294,61.6718824 70.4914706,62.3401176 69.6773529,62.3401176 L69.6355882,62.3401176 L67.8091176,62.3401176 L65.6491176,77.6412941 C65.5338235,78.3724706 64.8979412,78.8936471 64.1867647,78.8936471 L39.8679412,78.8936471 C39.095,78.8936471 38.4473529,78.2877647 38.3855882,77.5365882 L36.2244118,62.3401176 L34.3773529,62.3401176 C33.5632353,62.3401176 32.9161765,61.6718824 32.9161765,60.8577647 L32.9161765,60.836 L32.9161765,54.9707059 C32.9161765,54.1665882 33.5632353,53.5095294 34.3773529,53.5095294 Z" id="Fill-4" fill="#FFFFFF"></path>
                <path d="M26.4332353,27.0324118 C27.395,27.7647647 28.4291176,28.4253529 29.5067647,29.0135882 C28.0702941,32.7471176 27.1808824,37.2577059 27.0508824,42.1118235 L19.3667647,42.1118235 C19.6685294,36.4382941 22.1097059,31.3265294 25.8579412,27.5482941 C26.0597059,27.3912353 26.2320588,27.2041765 26.4332353,27.0324118 M32.8673529,22.8382941 C32.2644118,23.6577059 31.6614706,24.5618235 31.1008824,25.5677059 C30.8844118,25.9688824 30.685,26.3577059 30.4685294,26.7588824 C29.7214706,26.3577059 29.0038235,25.9412353 28.3291176,25.4382941 C29.7214706,24.4047647 31.2585294,23.5277059 32.8673529,22.8382941 M40.3920588,21.0871176 L40.3920588,29.603 C37.9932353,29.4735882 35.7102941,28.9853529 33.5567647,28.1959412 C33.2555882,28.0812353 32.9526471,27.9794706 32.6655882,27.8224118 C32.8379412,27.4488824 33.0391176,27.0753529 33.2255882,26.7159412 C34.5461765,24.2894706 36.1697059,22.4647647 37.9361765,21.3312353 C38.7402941,21.2165294 39.5597059,21.1441765 40.3920588,21.0871176 M45.2891176,21.3312353 C47.0555882,22.4647647 48.6785294,24.2894706 49.9997059,26.7159412 C50.2155882,27.0753529 50.3726471,27.4488824 50.5891176,27.8224118 C50.2726471,27.9794706 49.9861765,28.0812353 49.6555882,28.1959412 C47.5438235,28.9853529 45.2320588,29.4735882 42.8185294,29.603 L42.8185294,21.0871176 C43.6667647,21.1441765 44.4844118,21.2165294 45.2891176,21.3312353 M54.8832353,25.4382941 C54.2085294,25.9412353 53.4891176,26.3577059 52.7567647,26.7588824 C52.5567647,26.3577059 52.3402941,25.9688824 52.1261765,25.5677059 C51.5932353,24.5618235 50.9902941,23.6577059 50.345,22.8382941 C51.9667647,23.5277059 53.4891176,24.4047647 54.8832353,25.4382941 M41.6273529,17.0077059 C34.3614706,17.0077059 27.7832353,19.9382941 23.0155882,24.6912353 C18.2467647,29.4588824 15.2891176,36.0371176 15.2891176,43.303 C15.2891176,50.5706471 18.2467647,57.1618235 23.0155882,61.9294706 C24.1067647,63.0206471 25.2844118,64.0118235 26.5626471,64.9159412 C28.745,66.4253529 31.0285294,63.0777059 28.8744118,61.5853529 C23.3597059,57.7071176 19.7408824,51.3600588 19.3667647,44.5235882 L27.0508824,44.5235882 C27.0938235,45.8165294 27.1808824,47.1806471 27.3097059,48.5588824 C27.4967647,50.0677059 29.7508824,49.9235882 29.7508824,48.4165294 L29.7508824,48.2871176 C29.7508824,48.2294706 29.7361765,48.2000588 29.7361765,48.1577059 C29.0908824,42.5559412 29.6644118,35.4765294 31.7185294,30.0765294 C32.0338235,30.1912353 32.3785294,30.3059412 32.7226471,30.4777059 C35.1361765,31.3400588 37.7067647,31.9000588 40.3920588,32.0294706 L40.3920588,35.3765294 C40.3920588,36.9982941 42.8185294,36.9982941 42.8185294,35.3765294 L42.8185294,32.0294706 C45.505,31.9000588 48.1185294,31.3400588 50.5320588,30.4777059 C50.8467647,30.3059412 51.1773529,30.1912353 51.5214706,30.0765294 C52.1538235,31.7706471 52.685,33.6235882 53.0585294,35.6206471 C53.3467647,37.0706471 55.7585294,36.8412353 55.4714706,35.3471176 C55.0702941,33.063 54.4655882,30.9382941 53.7202941,29.0135882 C54.8108824,28.4253529 55.845,27.7647647 56.8214706,27.0324118 C56.9932353,27.2041765 57.195,27.3912353 57.3526471,27.5482941 C59.5497059,29.7606471 61.2732353,32.3753529 62.4079412,35.3047647 C63.3697059,37.8177059 67.1332353,36.3088824 66.1844118,33.8400588 C64.8497059,30.3924118 62.795,27.2912353 60.2397059,24.6912353 C55.4714706,19.9382941 48.8938235,17.0077059 41.6273529,17.0077059" id="Fill-6" fill="#FFFFFF"></path>
            </g>
        </g>
    </g>
</svg>