<?xml version="1.0" encoding="UTF-8"?>
<svg width="89px" height="100px" viewBox="0 0 89 100" version="1.1" xmlns="http://www.w3.org/2000/svg" xmlns:xlink="http://www.w3.org/1999/xlink">
    <!-- Generator: Sketch 51.1 (57501) - http://www.bohemiancoding.com/sketch -->
    <title>ICON Easy</title>
    <desc>Created with Sketch.</desc>
    <defs>
        <polygon id="path-1" points="0.000117647059 0 88.1788235 0 88.1788235 100 0.000117647059 100"></polygon>
    </defs>
    <g id="Page-1" stroke="none" stroke-width="1" fill="none" fill-rule="evenodd">
        <g id="SALES-Onepager" transform="translate(-673.000000, -1109.000000)">
            <g id="ICON-Easy" transform="translate(673.000000, 1109.000000)">
                <g id="Group-3">
                    <mask id="mask-2" fill="white">
                        <use xlink:href="#path-1"></use>
                    </mask>
                    <g id="Clip-2"></g>
                    <path d="M87.3907059,74.9998824 C86.8830588,75.8792941 86.1477647,76.6275294 85.2377647,77.1528235 L47.0307059,99.2122353 C45.2107059,100.262824 42.9677647,100.262824 41.1483529,99.2122353 L2.94129412,77.1534118 C1.12129412,76.1022353 0.000117647059,74.1604706 0.000117647059,72.0587059 L0.000117647059,27.9410588 C0.000117647059,26.8904706 0.280117647,25.8792941 0.787764706,24.9998824 C1.296,24.1204706 2.03129412,23.3722353 2.94129412,22.8469412 L41.1483529,0.787529412 C42.9677647,-0.263058824 45.2107059,-0.263058824 47.0307059,0.787529412 L85.2377647,22.8463529 C87.0577647,23.8975294 88.1789412,25.8392941 88.1789412,27.9404706 L88.1789412,72.0587059 C88.1789412,73.1092941 87.8983529,74.1204706 87.3907059,74.9998824" id="Fill-1" fill="#C1B059" mask="url(#mask-2)"></path>
                </g>
                <path d="M42.7227647,37.6366471 L43.7268824,34.7648824 L44.7045294,37.6366471 L42.7227647,37.6366471 Z M44.1004118,29.9954706 C43.4974706,29.7807647 42.7798235,30.1101765 42.5633529,30.7425294 L38.9315882,41.1119412 C38.7015882,41.7442941 39.0162941,42.4325294 39.6486471,42.6484118 C40.2815882,42.8778235 40.9698235,42.5337059 41.1857059,41.9013529 L41.8462941,40.0778235 L45.5651176,40.0778235 L46.2268824,41.9013529 C46.4415882,42.5337059 47.131,42.8778235 47.7633529,42.6484118 C48.3945294,42.4325294 48.7251176,41.7442941 48.5092353,41.1119412 L44.8474706,30.7425294 C44.7180588,30.4266471 44.4739412,30.1248824 44.1004118,29.9954706 Z M55.2457059,67.0042941 L56.4798235,67.0042941 C57.5139412,67.0042941 58.4474706,66.5884118 59.1368824,65.8984118 C59.8268824,65.2101765 60.271,64.2472353 60.271,63.2131176 C60.271,62.5248824 59.7251176,61.9778235 59.0504118,61.9778235 C58.3621765,61.9778235 57.8304118,62.5248824 57.8304118,63.2131176 C57.8304118,63.5719412 57.6721765,63.9325294 57.4427647,64.1766471 L57.4139412,64.1766471 C57.1986471,64.4060588 56.8533529,64.5778235 56.4798235,64.5778235 L55.2457059,64.5778235 C54.8721765,64.5778235 54.5268824,64.4060588 54.2545294,64.1766471 C54.0239412,63.9325294 53.8662941,63.5719412 53.8662941,63.2131176 L53.8662941,58.029 C53.8662941,57.6260588 54.0239412,57.2819412 54.2545294,57.0378235 C54.5268824,56.7942941 54.8721765,56.6501765 55.2457059,56.6501765 L56.4798235,56.6501765 C56.8533529,56.6501765 57.1986471,56.7942941 57.4139412,57.0378235 L57.471,57.0807647 C57.6868824,57.3395882 57.8304118,57.6560588 57.8304118,58.029 C57.8304118,58.6895882 58.3621765,59.2207647 59.0504118,59.2207647 C59.7251176,59.2207647 60.271,58.6895882 60.271,58.029 C60.271,56.9954706 59.8551176,56.0766471 59.1945294,55.4013529 L59.1368824,55.3148824 C58.4474706,54.6248824 57.5139412,54.209 56.4798235,54.209 L55.2457059,54.209 C54.2104118,54.209 53.2339412,54.6248824 52.5592353,55.3148824 C51.871,56.0042941 51.4533529,56.9660588 51.4533529,58.029 L51.4533529,63.2131176 C51.4533529,64.2472353 51.871,65.2101765 52.5592353,65.8984118 C53.2339412,66.5884118 54.2104118,67.0042941 55.2457059,67.0042941 Z M29.5962941,61.8207647 L33.3298235,61.8207647 L33.4168824,61.8354706 L33.5015882,61.8631176 L33.5015882,61.8778235 L33.5015882,61.8925294 C33.5015882,61.9072353 33.5315882,61.9354706 33.5315882,61.9501765 C33.5457059,61.9778235 33.5457059,61.9925294 33.5457059,62.0219412 L33.5457059,64.3484118 L33.5457059,64.4060588 L33.5315882,64.4337059 C33.5315882,64.4337059 33.5315882,64.4913529 33.5015882,64.5207647 L33.4739412,64.5207647 L33.4168824,64.5778235 L33.3298235,64.5778235 L29.5962941,64.5778235 L29.5962941,61.8207647 Z M29.5962941,56.6501765 L33.3298235,56.6501765 L33.4168824,56.6501765 L33.4739412,56.6795882 L33.5015882,56.6937059 C33.5015882,56.7219412 33.5315882,56.7513529 33.5315882,56.779 L33.5457059,56.779 L33.5457059,56.8513529 L33.5457059,59.1631176 C33.5457059,59.1925294 33.5457059,59.2207647 33.5315882,59.2354706 C33.5315882,59.2648824 33.5315882,59.3219412 33.5015882,59.3219412 L33.5015882,59.3501765 L33.4168824,59.3795882 L33.3298235,59.4072353 L29.5962941,59.4072353 L29.5962941,56.6501765 Z M28.3751176,67.0042941 L33.3298235,67.0042941 C33.6886471,67.0042941 34.0192353,66.9337059 34.3357059,66.8042941 C34.6221765,66.6748824 34.8815882,66.5031176 35.111,66.3013529 L35.1974706,66.2442941 C35.4551176,65.9854706 35.6415882,65.6837059 35.7715882,65.3531176 C35.9151176,65.0366471 35.9721765,64.6778235 35.9721765,64.3484118 L35.9721765,62.0219412 C35.9721765,61.6766471 35.9151176,61.3325294 35.7715882,61.0454706 C35.6992353,60.8866471 35.6415882,60.7572353 35.571,60.6001765 C35.6415882,60.4707647 35.6992353,60.3266471 35.7715882,60.169 C35.9151176,59.8531176 35.9721765,59.509 35.9721765,59.1631176 L35.9721765,56.8513529 C35.9721765,56.5072353 35.9151176,56.1619412 35.7715882,55.8748824 C35.6415882,55.5307647 35.4551176,55.2425294 35.1974706,54.9854706 L35.1398235,54.9266471 C34.9092353,54.7119412 34.6221765,54.5542941 34.3357059,54.4101765 C34.0192353,54.2807647 33.6886471,54.209 33.3298235,54.209 L28.3751176,54.209 C27.7151176,54.209 27.1545294,54.7542941 27.1545294,55.4295882 L27.1545294,65.7837059 C27.1545294,66.459 27.7151176,67.0042941 28.3751176,67.0042941 Z M66.3457059,71.0984118 L45.7239412,71.0984118 L45.7239412,50.4895882 L66.3457059,50.4895882 L66.3457059,71.0984118 Z M41.6886471,71.0984118 L21.0945294,71.0984118 L21.0945294,50.4895882 L41.6886471,50.4895882 L41.6886471,71.0984118 Z M33.4168824,25.8307647 L54.0104118,25.8307647 L54.0104118,46.4395882 L33.4168824,46.4395882 L33.4168824,25.8307647 Z M68.3574706,46.4395882 L58.0604118,46.4395882 L58.0604118,23.8207647 C58.0604118,22.6866471 57.1415882,21.8101765 56.0357059,21.8101765 L31.4062941,21.8101765 C30.2568824,21.8101765 29.3668824,22.6866471 29.3668824,23.8207647 L29.3668824,46.4395882 L19.0551176,46.4395882 C17.9339412,46.4395882 17.0298235,47.359 17.0298235,48.4648824 L17.0298235,73.1366471 C17.0298235,74.2425294 17.9339412,75.119 19.0551176,75.119 L68.3574706,75.119 C69.4768824,75.119 70.4104118,74.2425294 70.4104118,73.1366471 L70.4104118,48.4648824 C70.4104118,47.359 69.4768824,46.4395882 68.3574706,46.4395882 Z" id="Fill-4" fill="#FFFFFF"></path>
            </g>
        </g>
    </g>
</svg>