<svg xmlns="http://www.w3.org/2000/svg" xmlns:xlink="http://www.w3.org/1999/xlink" viewBox="0 0 234.43 268.19"><defs><style>.cls-1{fill:none;}.cls-2{fill:#81a14f;}.cls-3{clip-path:url(#clip-path);}.cls-4{fill:url(#linear-gradient);}</style><clipPath id="clip-path"><path class="cls-1" d="M154.76,39.18,89.24,1.35a10.1,10.1,0,0,0-10.09,0L13.62,39.18a10.08,10.08,0,0,0-5,8.74v75.66a10.08,10.08,0,0,0,5,8.74l65.53,37.83a10.1,10.1,0,0,0,10.09,0l65.52-37.83a10.09,10.09,0,0,0,5.05-8.74V47.92A10.09,10.09,0,0,0,154.76,39.18Zm-115.83,78a50.39,50.39,0,0,1-5.66-21.34h20.2A30.55,30.55,0,0,0,56.87,108ZM53.54,90.84H33.31A51,51,0,0,1,81.93,42.9V63.11A30.84,30.84,0,0,0,53.54,90.84Zm41,43.38H74.37V92.86H94.54ZM87,63.15V42.92a51,51,0,0,1,48.1,47.92H114.85A30.84,30.84,0,0,0,87,63.15Zm42,55.06-17.7-9.68a30.5,30.5,0,0,0,3.67-12.65h20.2A50.67,50.67,0,0,1,129,118.21Z"/></clipPath><linearGradient id="linear-gradient" x1="94.4" y1="121.44" x2="267.64" y2="108.12" gradientTransform="translate(-86.16 40.77) scale(1.12 1)" gradientUnits="userSpaceOnUse"><stop offset="0" stop-color="#81a14f"/><stop offset="0.16" stop-color="#7da350"/><stop offset="0.34" stop-color="#6faa55"/><stop offset="0.53" stop-color="#59b55c"/><stop offset="0.72" stop-color="#3bc565"/><stop offset="0.91" stop-color="#14d972"/><stop offset="1" stop-color="#00e378"/></linearGradient></defs><title>Asset 1</title><g id="Layer_2" data-name="Layer 2"><g id="Layer_1-2" data-name="Layer 1"><path class="cls-2" d="M154.76,39.18,89.24,1.35a10.1,10.1,0,0,0-10.09,0L13.62,39.18a10.08,10.08,0,0,0-5,8.74v75.66a10.08,10.08,0,0,0,5,8.74l65.53,37.83a10.1,10.1,0,0,0,10.09,0l65.52-37.83a10.09,10.09,0,0,0,5.05-8.74V47.92A10.09,10.09,0,0,0,154.76,39.18Zm-115.83,78a50.39,50.39,0,0,1-5.66-21.34h20.2A30.55,30.55,0,0,0,56.87,108ZM53.54,90.84H33.31A51,51,0,0,1,81.93,42.9V63.11A30.84,30.84,0,0,0,53.54,90.84Zm41,43.38H74.37V92.86H94.54ZM87,63.15V42.92a51,51,0,0,1,48.1,47.92H114.85A30.84,30.84,0,0,0,87,63.15Zm42,55.06-17.7-9.68a30.5,30.5,0,0,0,3.67-12.65h20.2A50.67,50.67,0,0,1,129,118.21Z"/><g class="cls-3"><rect class="cls-4" x="26.32" y="74.65" width="181.8" height="161.82" transform="translate(-56.45 67.38) rotate(-26.08)"/></g></g></g></svg>